<?xml version="1.0" encoding="UTF-8" standalone="no"?>
<!-- Generator: Adobe Illustrator 25.2.3, SVG Export Plug-In . SVG Version: 6.00 Build 0)  -->

<svg
   version="1.0"
   id="svg15246"
   x="0px"
   y="0px"
   width="25"
   height="25"
   viewBox="0 0 24.999999 25"
   enable-background="new 0 0 39.6836 39.68359"
   xml:space="preserve"
   sodipodi:docname="StepButton.svg"
   inkscape:version="1.4 (e7c3feb100, 2024-10-09)"
   xmlns:inkscape="http://www.inkscape.org/namespaces/inkscape"
   xmlns:sodipodi="http://sodipodi.sourceforge.net/DTD/sodipodi-0.dtd"
   xmlns="http://www.w3.org/2000/svg"
   xmlns:svg="http://www.w3.org/2000/svg"><defs
   id="defs16" />
<sodipodi:namedview
   bordercolor="#666666"
   borderopacity="1.0"
   fit-margin-bottom="0"
   fit-margin-left="0"
   fit-margin-right="0"
   fit-margin-top="0"
   id="base"
   inkscape:current-layer="svg15246"
   inkscape:cx="15.815201"
   inkscape:cy="21.402607"
   inkscape:document-units="mm"
   inkscape:pageopacity="0.0"
   inkscape:pageshadow="2"
   inkscape:window-height="1434"
   inkscape:window-maximized="0"
   inkscape:window-width="1274"
   inkscape:window-x="360"
   inkscape:window-y="55"
   inkscape:zoom="15.839192"
   pagecolor="#ffffff"
   showgrid="false"
   units="px"
   inkscape:showpageshadow="2"
   inkscape:pagecheckerboard="0"
   inkscape:deskcolor="#d1d1d1">
	</sodipodi:namedview>
<g
   id="g16"
   transform="scale(0.62837485)">
	<path
   opacity="0.35"
   d="M 19.84185,0 C 8.88351,0 0,8.88352 0,19.84174 0,30.8002 8.88351,39.6836 19.84185,39.6836 30.80019,39.6836 39.6837,30.8002 39.6837,19.84174 39.6837,8.88352 30.80019,0 19.84185,0 Z m 0,38.39191 c -10.24497,0 -18.55016,-8.30508 -18.55016,-18.55018 0,-10.24485 8.30519,-18.54993 18.55016,-18.54993 10.24497,0 18.55016,8.30508 18.55016,18.54993 0,10.2451 -8.3052,18.55018 -18.55016,18.55018 z"
   id="path1" />
	<g
   id="g15">
		<path
   fill="#424242"
   d="m 34.54179,19.83718 c 0,-0.68432 -0.04782,-1.3679 -0.14304,-2.04559 l -0.42295,0.05943 c -0.38543,0.05416 -0.7567,-0.19654 -0.8293,-0.57892 -0.21305,-1.12217 -0.5602,-2.19609 -1.03122,-3.20162 -0.1607,-0.34307 -0.01114,-0.75249 0.32336,-0.93034 L 32.8213,12.93667 C 31.77302,10.96521 30.28924,9.25825 28.48282,7.94585 26.6764,6.63345 24.59453,5.74972 22.39556,5.36198 l -0.07648,0.4338 c -0.06664,0.378 -0.4167,0.64202 -0.79727,0.59213 -0.54985,-0.07209 -1.10901,-0.11387 -1.67859,-0.11387 -0.56963,0 -1.1288,0.04179 -1.67866,0.11387 C 17.78399,6.4378 17.43394,6.17378 17.36729,5.79578 L 17.29081,5.36203 c -2.1989,0.38768 -4.28083,1.2714 -6.0872,2.5838 C 9.39719,9.2583 7.91334,10.9652 6.86512,12.93666 l 0.38259,0.20342 c 0.3345,0.17785 0.48407,0.58727 0.32337,0.93034 -0.471,1.00553 -0.81818,2.07948 -1.03124,3.20166 -0.0726,0.38238 -0.44388,0.63308 -0.82931,0.57892 L 5.28765,17.79158 c -0.09521,0.67768 -0.14304,1.36127 -0.14304,2.04559 0,3.80818 1.4799,7.47111 4.12531,10.21049 l 0.31603,-0.30519 c 0.27399,-0.26459 0.71202,-0.28044 0.99012,-0.02018 0.81949,0.7669 1.7349,1.43053 2.72562,1.97655 0.3366,0.18552 0.4583,0.61068 0.28982,0.95612 l -0.19178,0.39319 c 2.00688,0.97876 4.21063,1.48753 6.44347,1.48753 2.23283,0 4.43659,-0.50877 6.4434,-1.48752 l -0.19175,-0.39318 c -0.16847,-0.34545 -0.04676,-0.77061 0.28984,-0.95612 0.9907,-0.54602 1.90605,-1.20961 2.72555,-1.97654 0.27812,-0.26027 0.71616,-0.24443 0.99017,0.02016 l 0.31605,0.30519 c 2.64536,-2.73938 4.12533,-6.40231 4.12533,-10.21049 z"
   id="path2" />
		<g
   opacity="0.32"
   id="g8">
			<g
   id="g3">
				<path
   d="m 32.1153,14.07045 c 0.04284,0.0914 0.07057,0.19061 0.11132,0.28312 0.1348,0.30488 0.25491,0.61701 0.36703,0.93333 0.0737,0.20881 0.14439,0.41792 0.20801,0.63128 0.10954,0.36573 0.20475,0.73725 0.2841,1.11515 0.0169,0.08095 0.0453,0.1573 0.06079,0.23874 0.07259,0.38239 0.44386,0.63312 0.82927,0.57897 l 0.42296,-0.05944 c 3.1e-4,0.0021 3.7e-4,0.0043 6.8e-4,0.0064 l 1.08768,-0.15287 C 35.2291,15.78006 34.65806,14.0163 33.80851,12.41826 l -0.99345,0.52825 c 0.0019,0.0036 0.0044,0.0067 0.0063,0.01027 l -0.45658,0.2428 c -0.27557,0.19693 -0.39623,0.55744 -0.24945,0.87087 z"
   id="path3" />
			</g>
			<g
   id="g4">
				<path
   d="m 5.71053,17.85095 c 0.38547,0.05421 0.75673,-0.19651 0.82933,-0.5789 0.01549,-0.08151 0.04395,-0.15785 0.06085,-0.2388 0.07911,-0.37692 0.17414,-0.74739 0.28331,-1.1122 0.06411,-0.2152 0.13529,-0.4261 0.20967,-0.63668 C 7.20562,14.96886 7.32536,14.6574 7.45986,14.35325 7.50061,14.2608 7.52834,14.16178 7.57112,14.07044 7.71791,13.75695 7.59731,13.39651 7.32168,13.1995 L 6.86516,12.95676 c 0.00191,-0.0036 0.00436,-0.0067 0.00627,-0.01027 L 5.87798,12.41823 c -0.84955,1.59804 -1.42059,3.3618 -1.67864,5.22692 l 1.08768,0.15287 c 3.1e-4,-0.0022 3.7e-4,-0.0043 6.8e-4,-0.0065 z"
   id="path4" />
			</g>
			<g
   id="g5">
				<path
   d="m 13.59154,32.65493 c 0.16461,-0.33752 0.04881,-0.74776 -0.2704,-0.93966 -1.00236,-0.55112 -1.92586,-1.22112 -2.7531,-1.99801 C 10.30926,29.4819 9.92287,29.48848 9.65069,29.70005 l -0.38073,0.3677 c -0.00227,-0.0023 -0.00418,-0.005 -0.00645,-0.0074 l -0.77819,0.75144 c 1.27368,1.31658 2.77572,2.40352 4.43985,3.21588 l 0.47724,-0.97845 c -8.6e-4,-4.3e-4 -0.0018,-6.8e-4 -0.0026,-0.0011 z"
   id="path5" />
			</g>
			<g
   id="g6">
				<path
   d="m 29.11841,29.71727 c -0.82718,0.77683 -1.75068,1.44689 -2.75298,1.99795 -0.31927,0.19184 -0.4352,0.6022 -0.27058,0.93972 l 0.19178,0.39321 c -8.6e-4,4.3e-4 -0.0018,6.8e-4 -0.0026,0.0011 l 0.47724,0.97845 c 1.66413,-0.81236 3.16623,-1.89929 4.43991,-3.21587 -0.22018,-0.21256 -0.47552,-0.45917 -0.77819,-0.75145 -0.0023,0.0024 -0.0042,0.005 -0.0065,0.0074 L 30.03582,29.70014 C 29.76376,29.4885 29.37718,29.48186 29.1184,29.71728 Z"
   id="path6" />
			</g>
			<g
   id="g7">
				<path
   d="m 18.15101,6.38387 c 0.10017,-0.0125 0.20309,-0.00821 0.30367,-0.01838 0.33162,-0.03399 0.66559,-0.05176 1.00107,-0.06065 0.22136,-0.00557 0.44209,-0.00818 0.66466,-0.00275 0.38169,0.00884 0.76444,0.03309 1.14837,0.0744 0.08221,0.00894 0.1636,0.00552 0.24584,0.01596 0.38611,0.04913 0.7393,-0.22649 0.80689,-0.60977 l 0.07417,-0.42063 c 0.0021,3.5e-4 0.0042,9.8e-4 0.0063,0.00133 L 22.59269,4.2817 C 20.73916,3.95078 18.88526,3.94883 17.1029,4.26298 l 0.19541,1.10806 c 0.004,-7.1e-4 0.0077,-0.00208 0.0117,-0.00279 l 0.08982,0.50926 c 0.10216,0.32294 0.40774,0.5491 0.75118,0.50636 z"
   id="path7" />
			</g>
		</g>
		<path
   opacity="0.4"
   d="M 34.39948,17.79801"
   id="path8" />
		<g
   id="g13">
			<path
   opacity="0.4"
   d="m 5.28697,17.79805 c -0.09454,0.67553 -0.14236,1.35696 -0.14236,2.03913 0,3.80818 1.4799,7.47111 4.12531,10.21049 L 8.32681,30.94485 C 8.03361,31.22797 7.55624,31.22029 7.2864,30.91485 4.5885,27.8604 3.08941,23.91551 3.08942,19.8236 c 0,-0.53299 0.02539,-1.06561 0.07616,-1.59595 0.03873,-0.40446 0.41811,-0.68912 0.82048,-0.63256 z"
   id="path9" />
			<path
   opacity="0.4"
   d="m 26.28658,33.04818 c -2.00681,0.97875 -4.21057,1.48752 -6.4434,1.48752 -2.23185,0 -4.4345,-0.50846 -6.44076,-1.48642 l -0.57719,1.16322 c -0.17875,0.36653 -0.02391,0.81857 0.35024,0.9809 2.1019,0.91182 4.37131,1.38395 6.66776,1.38395 2.29639,0 4.5658,-0.47213 6.66776,-1.38395 0.37409,-0.16233 0.52893,-0.61437 0.35018,-0.9809 l -0.57454,-1.16433 c -8.6e-4,4.3e-4 -0.0018,6.8e-4 -0.0026,0.0011"
   id="path10" />
			<path
   opacity="0.4"
   d="m 30.41645,30.04769 c 2.64535,-2.73937 4.12532,-6.4023 4.12532,-10.21048 0,-0.68432 -0.04782,-1.3679 -0.14304,-2.04559 l 1.30165,-0.19657 c 0.40237,-0.05649 0.78181,0.22817 0.82048,0.63263 0.05077,0.53035 0.07622,1.0629 0.07622,1.59595 0,4.09192 -1.49915,8.0368 -4.19706,11.09119 -0.26978,0.3055 -0.74598,0.31435 -1.03912,0.03123 z"
   id="path11" />
			<path
   opacity="0.4"
   d="M 9.94933,8.97083 C 10.31507,8.63767 10.7009,8.32591 11.10008,8.03037 11.13598,8.00382 11.16751,7.97234 11.20365,7.94604 11.64253,7.62714 12.099,7.33579 12.56812,7.06852 12.97492,6.83789 13.39554,6.63456 13.82195,6.4445 13.8801,6.41819 13.93499,6.38524 13.99345,6.35992 14.9692,5.93948 15.99055,5.62526 17.03951,5.42143 17.12421,5.40496 17.20584,5.37717 17.29092,5.36217 L 17.05003,4.06495 c -3.7e-4,-0.00221 -0.0019,-0.00369 -0.0023,-0.0059 V 4.01725 C 16.95845,3.63935 16.58915,3.38438 16.20589,3.46945 13.96851,3.96709 11.85413,4.91911 9.99557,6.26943 9.99304,6.27141 9.99082,6.27362 9.9883,6.27534 9.98652,6.27682 9.98455,6.2778 9.98277,6.27903 8.12434,7.62936 6.56526,9.34578 5.40056,11.32013 c -0.1994,0.33807 -0.07081,0.7681 0.26087,0.96996 l 0.04008,0.01303 c 0.00172,9.8e-4 0.0027,0.0027 0.00443,0.0034 l 1.15917,0.63017 c 0.03922,-0.07376 0.08913,-0.14064 0.12957,-0.21366 l 1.2e-4,2.5e-4 C 7.51433,11.78532 8.1311,10.90781 8.83479,10.107 8.86067,10.07799 8.89054,10.05217 8.91667,10.02316 9.24405,9.65657 9.58612,9.30301 9.94933,8.97083 Z"
   id="path12" />
			<path
   opacity="0.4"
   d="M 34.27298,11.31054 C 33.52086,10.0357 32.58906,8.88305 31.53353,7.85236 31.48958,7.80933 31.44729,7.76483 31.40291,7.72254 31.0893,7.42282 30.7626,7.13835 30.42581,6.86347 30.35555,6.80594 30.28548,6.74865 30.21424,6.69234 30.03807,6.55318 29.87285,6.40172 29.6909,6.26944 29.52899,6.15191 29.35491,6.05455 29.1892,5.94292 29.11144,5.89055 29.03227,5.84064 28.95359,5.7895 28.59277,5.55543 28.2271,5.33169 27.8503,5.12638 27.79,5.09368 27.72767,5.06442 27.66694,5.03221 26.34587,4.33344 24.94415,3.79498 23.48065,3.46945 23.28549,3.42618 23.09506,3.4724 22.94225,3.57665 22.77493,3.68287 22.64806,3.85326 22.611,4.06348 l -0.21526,1.29869 c 0.08157,0.01426 0.16166,0.0359 0.24298,0.05163 v 0.00541 c 1.5608,0.30291 3.05933,0.85268 4.43874,1.62914 0.11236,0.06344 0.21815,0.1372 0.32867,0.20358 0.31644,0.18932 0.62882,0.38602 0.93087,0.59993 0.153,0.10843 0.29874,0.2262 0.44743,0.34053 0.2648,0.20334 0.52457,0.41233 0.77419,0.63263 0.15023,0.13253 0.29658,0.26898 0.44134,0.40765 0.23524,0.22522 0.4615,0.45904 0.68101,0.69926 0.1321,0.14457 0.26511,0.28816 0.39155,0.4379 0.22614,0.26825 0.43778,0.54805 0.64431,0.83203 0.09829,0.13498 0.20272,0.26505 0.29659,0.40372 0.29037,0.42954 0.56342,0.87137 0.80788,1.33115 h 6e-5 6e-5 l 1.14626,-0.62058 c 0.0034,-0.0017 0.0053,-0.0052 0.0087,-0.0071 l 0.0042,-0.0025 c 0.35926,-0.19079 0.49917,-0.64565 0.29239,-0.99602 z"
   id="path13" />
		</g>
		<g
   id="g14">
			<path
   fill="#333333"
   d="m 28.62129,36.06413 c 0.0761,-0.04081 0.14906,-0.08606 0.22442,-0.1281 0.39801,-0.22473 0.79017,-0.45781 1.17103,-0.71131 0.22645,-0.149 0.44343,-0.30955 0.66287,-0.46789 0.22067,-0.16129 0.44245,-0.31939 0.65605,-0.49052 0.35695,-0.28251 0.69791,-0.58173 1.03285,-0.88907 0.06491,-0.06049 0.13228,-0.11728 0.19639,-0.1785 3.56927,-3.37016 5.81077,-8.12875 5.82712,-13.42113 C 38.3619,10.29238 31.21253,2.49359 22.00774,1.42232 21.90361,1.40904 21.79924,1.39036 21.69517,1.37905 21.0859,1.31857 20.46857,1.28562 19.84338,1.28562 c -8.9135,0 -16.35245,6.28865 -18.13798,14.66967 -0.03879,0.18735 -0.06854,0.3779 -0.10161,0.56747 -0.19461,1.07692 -0.31214,2.18113 -0.31214,3.31435 0,7.67266 4.65843,14.25562 11.30044,17.07921 0.11931,0.04966 0.24458,0.08999 0.36543,0.13744 0.37563,0.15023 0.75557,0.2921 1.14288,0.41823 5.02491,1.60136 10.22549,0.93898 14.52089,-1.40786 z m -10.35985,0.43199 c -0.06811,-0.0064 -0.13627,-0.01057 -0.20432,-0.0177 -1.68079,-0.18023 -3.32727,-0.61074 -4.88162,-1.28493 -0.37416,-0.16252 -0.529,-0.61443 -0.35025,-0.98103 l 0.09995,-0.20481 c -1.66413,-0.81236 -3.16617,-1.89936 -4.43985,-3.216 l -0.03092,0.03 c -4.9e-4,-4.9e-4 -0.00111,-9.8e-4 -0.0016,-0.0015 L 8.31785,30.95048 C 8.02397,31.22586 7.5538,31.2175 7.28641,30.91483 6.30304,29.80152 5.48355,28.5675 4.83328,27.25356 4.80556,27.1975 4.77587,27.14267 4.74876,27.08637 4.56079,26.69568 4.39132,26.29663 4.23427,25.89291 4.20138,25.80808 4.1685,25.72351 4.1369,25.63819 3.99011,25.24185 3.85777,24.84009 3.74123,24.43293 3.71517,24.34196 3.69193,24.25025 3.66747,24.15878 3.5567,23.74547 3.45731,23.32897 3.37832,22.9073 3.36541,22.83845 3.35681,22.76887 3.34476,22.70003 3.18003,21.75564 3.08948,20.79428 3.08948,19.82358 c 0,-0.53305 0.02539,-1.06561 0.07616,-1.59595 0.01838,-0.19202 0.1171,-0.35332 0.25503,-0.46765 0.14119,-0.10917 0.32295,-0.16842 0.51295,-0.15269 l -0.02305,-0.0076 c 0.02569,9.8e-4 0.04954,-0.0084 0.07554,-0.0047 l 0.21331,0.03 C 4.45746,15.76007 5.0285,13.99618 5.87806,12.39802 L 5.70601,12.30656 C 5.34673,12.11576 5.20683,11.6609 5.41354,11.31053 c 1.1631,-1.9714 2.71991,-3.68586 4.57508,-5.0352 1.85708,-1.34836 3.96937,-2.29939 6.20442,-2.7963 0.39721,-0.08827 0.78642,0.18514 0.85699,0.58591 l 0.03381,0.19178 C 18.86623,3.9425 20.72011,3.94446 22.57369,4.27541 L 22.611,4.06347 c 0.0045,-0.02582 0.02065,-0.04573 0.02778,-0.07032 v 0.0241 c 0.04383,-0.18539 0.15631,-0.34004 0.30371,-0.4406 0.1514,-0.09589 0.33543,-0.1399 0.52371,-0.0981 0.52008,0.11581 1.03445,0.25595 1.54144,0.42069 0.92381,0.30021 1.81055,0.68352 2.65819,1.13248 0.06122,0.03245 0.12398,0.06171 0.18484,0.09491 0.37692,0.20555 0.74284,0.42905 1.10188,0.66238 0.07923,0.05139 0.15908,0.10179 0.23745,0.15441 0.35098,0.23677 0.69232,0.48683 1.02406,0.74892 0.07137,0.0563 0.14156,0.11359 0.21194,0.17113 0.33586,0.27439 0.66318,0.55911 0.97692,0.85907 0.04444,0.04229 0.08673,0.08679 0.13068,0.12982 1.04932,1.02479 1.97018,2.18604 2.7255,3.4658 0.20518,0.34766 0.06946,0.79638 -0.28269,0.99086 l -0.16781,0.08925 c 3.7e-4,7.4e-4 6.1e-4,0.0012 9.8e-4,0.002 -0.01303,0.0069 -0.02557,0.01352 -0.03799,0.02016 0.85853,1.61833 1.42815,3.3827 1.6865,5.21641 l 0.22571,-0.03172 c 0.40385,-0.0568 0.78587,0.23013 0.82466,0.63607 0.16092,1.68643 0.06147,3.38491 -0.28626,5.03864 -0.01439,0.06811 -0.03172,0.13548 -0.04696,0.20334 -0.10406,0.46593 -0.2286,0.92767 -0.37262,1.3845 -0.03153,0.09982 -0.06436,0.19867 -0.09767,0.29775 -0.14322,0.42634 -0.3047,0.84506 -0.48105,1.25714 -0.04543,0.10572 -0.08925,0.21243 -0.13683,0.31717 -0.18545,0.40962 -0.39002,0.80965 -0.60743,1.20231 -0.05071,0.09146 -0.09712,0.18514 -0.14955,0.27587 -0.24833,0.42929 -0.51726,0.84653 -0.80284,1.25247 -0.03086,0.04376 -0.05753,0.08999 -0.08888,0.13351 -0.32769,0.45634 -0.67763,0.89768 -1.0508,1.32008 -0.06411,0.07253 -0.14119,0.12564 -0.2235,0.16473 -0.26136,0.11753 -0.58358,0.06934 -0.80314,-0.1426 -0.04672,-0.04524 -0.10763,-0.104 -0.15976,-0.15441 -0.0036,0.0039 -0.0078,0.0071 -0.01143,0.01082 l -0.0072,-0.0069 c -0.63945,0.66164 -1.3314,1.26378 -2.0673,1.8015 -0.73922,0.53428 -1.52632,1.0066 -2.35386,1.41056 l 0.0045,0.0093 c -0.0047,0.0022 -0.0091,0.0049 -0.01383,0.0074 l 0.09663,0.19817 c 0.13394,0.27439 0.0804,0.59697 -0.11218,0.80941 -0.06251,0.06614 -0.13671,0.12294 -0.2254,0.16154 -0.51799,0.22448 -1.0465,0.42142 -1.58268,0.5923 -0.04604,0.01476 -0.09325,0.02459 -0.13941,0.03885 -0.47933,0.14826 -0.9645,0.27636 -1.45489,0.38061 -0.0989,0.02114 -0.19885,0.0359 -0.29812,0.05532 -0.44405,0.0863 -0.89104,0.1576 -1.34136,0.20776 -0.1123,0.01254 -0.22491,0.02114 -0.3374,0.03147 -0.44847,0.04057 -0.89891,0.06491 -1.35076,0.06934 -0.10278,9.8e-4 -0.20543,0.0015 -0.3082,7.4e-4 -0.48076,-0.0042 -0.96003,-0.02852 -1.43678,-0.07377 z"
   id="path14" />
		</g>
	</g>
</g>
</svg>
