<?xml version="1.0" encoding="UTF-8" standalone="no"?>
<!-- Created with Inkscape (http://www.inkscape.org/) -->

<svg
   width="32"
   height="12"
   viewBox="0 0 8.4666666 3.175"
   version="1.1"
   id="svg1338"
   inkscape:version="1.4.1 (93de688d07, 2025-03-30)"
   sodipodi:docname="SeqNameKik1 (copy 1).svg"
   xmlns:inkscape="http://www.inkscape.org/namespaces/inkscape"
   xmlns:sodipodi="http://sodipodi.sourceforge.net/DTD/sodipodi-0.dtd"
   xmlns="http://www.w3.org/2000/svg"
   xmlns:svg="http://www.w3.org/2000/svg"
   xmlns:rdf="http://www.w3.org/1999/02/22-rdf-syntax-ns#"
   xmlns:cc="http://creativecommons.org/ns#"
   xmlns:dc="http://purl.org/dc/elements/1.1/">
  <defs
     id="defs1332" />
  <sodipodi:namedview
     id="base"
     pagecolor="#ffffff"
     bordercolor="#666666"
     borderopacity="1.0"
     inkscape:pageopacity="0.0"
     inkscape:pageshadow="2"
     inkscape:zoom="11.2"
     inkscape:cx="-1.5625"
     inkscape:cy="13.660714"
     inkscape:document-units="mm"
     inkscape:current-layer="layer1"
     showgrid="true"
     inkscape:snap-object-midpoints="true"
     inkscape:snap-page="true"
     inkscape:snap-bbox="true"
     inkscape:snap-bbox-midpoints="true"
     inkscape:bbox-paths="true"
     inkscape:snap-nodes="false"
     inkscape:window-width="2560"
     inkscape:window-height="1422"
     inkscape:window-x="0"
     inkscape:window-y="0"
     inkscape:window-maximized="1"
     inkscape:snap-grids="false"
     inkscape:showpageshadow="2"
     inkscape:pagecheckerboard="0"
     inkscape:deskcolor="#d1d1d1">
    <inkscape:grid
       type="xygrid"
       id="grid1889"
       spacingx="4.25"
       spacingy="4.25"
       units="mm"
       originx="0"
       originy="0" />
  </sodipodi:namedview>
  <metadata
     id="metadata1335">
    <rdf:RDF>
      <cc:Work
         rdf:about="">
        <dc:format>image/svg+xml</dc:format>
        <dc:type
           rdf:resource="http://purl.org/dc/dcmitype/StillImage" />
      </cc:Work>
    </rdf:RDF>
  </metadata>
  <g
     inkscape:label="Capa 1"
     inkscape:groupmode="layer"
     id="layer1"
     transform="translate(0,-288.5)">
    <path
       d="m 8.3173959,290.09901 -0.8589823,-0.36362 v 0.13877 l 0.6921043,0.28809 -0.6921043,0.28281 v 0.13877 l 0.8589823,-0.36362 z"
       id="text2"
       style="font-size:1.75661px;fill:#b3b3b3;stroke-width:0.2119;stroke-opacity:0.186488"
       aria-label="&gt;" />
    <path
       d="m 1.9488234,289.71035 c 0,-0.14019 -0.00841,-0.17945 -0.053275,-0.27478 -0.1121581,-0.23553 -0.3504938,-0.35891 -0.6953797,-0.35891 -0.44863198,0 -0.72622303,0.22993 -0.72622303,0.60005 0,0.24955 0.13178565,0.40657 0.40096486,0.47667 l 0.50751497,0.13459 c 0.2607673,0.0673 0.3757293,0.17104 0.3757293,0.33086 0,0.10936 -0.058883,0.22152 -0.1458054,0.2832 -0.081315,0.0589 -0.2102963,0.0869 -0.3757293,0.0869 -0.224316,0 -0.37292537,-0.0533 -0.47106363,-0.17105 -0.0757067,-0.0897 -0.10935405,-0.18786 -0.1065501,-0.31404 H 0.41225876 c 0.002804,0.18787 0.0392553,0.31124 0.12056986,0.4234 0.1401975,0.19347 0.37572931,0.29161 0.68696778,0.29161 0.2439436,0 0.4430241,-0.0561 0.5748098,-0.15702 0.1373935,-0.10936 0.224316,-0.29161 0.224316,-0.46826 0,-0.25236 -0.1570212,-0.43742 -0.4346123,-0.51312 l -0.5131229,-0.1374 c -0.24674757,-0.0673 -0.33647398,-0.1458 -0.33647398,-0.30282 0,-0.2075 0.18225676,-0.34489 0.45704388,-0.34489 0.3252582,0 0.5075149,0.1458 0.5103189,0.41498 z M 3.959255,289.11031 H 3.7125074 v 1.67115 l -1.0683049,-1.67115 h -0.283199 v 2.04408 h 0.2467476 v -1.65714 l 1.0570892,1.65714 H 3.959255 Z m 0.7346351,1.16364 h 0.672948 c 0.2327279,0 0.336474,0.11216 0.336474,0.36451 l -0.0028,0.18226 c 0,0.12618 0.022432,0.24955 0.058883,0.33367 h 0.3168464 v -0.0645 c -0.098138,-0.0673 -0.1177659,-0.1402 -0.1233738,-0.41218 -0.0028,-0.33648 -0.056079,-0.43742 -0.2775911,-0.53275 0.2299239,-0.11497 0.3224543,-0.25236 0.3224543,-0.48789 0,-0.3533 -0.2187081,-0.54677 -0.6224769,-0.54677 H 4.4331227 v 2.04408 h 0.2607674 z m 0,-0.22993 v -0.70379 h 0.6308888 c 0.1458054,0 0.2299239,0.0224 0.2944147,0.0785 0.070099,0.0589 0.1065501,0.15142 0.1065501,0.27199 0,0.24394 -0.1233738,0.35329 -0.4009648,0.35329 z m 2.2291406,-0.33367 v 1.44404 h 0.2467476 v -2.02726 H 7.0071492 c -0.086923,0.31124 -0.1430015,0.3533 -0.5243387,0.40377 v 0.17945 z"
       id="text3"
       style="font-size:2.80395px;fill:#e4b4b4;stroke-width:0.114495;stroke-linecap:round;stroke-miterlimit:4.1;stroke-dasharray:0.91596, 0.22899, 0.114495, 0.22899"
       aria-label="SNR1" />
  </g>
</svg>
