<?xml version="1.0" encoding="UTF-8" standalone="no"?>
<!-- Created with Inkscape (http://www.inkscape.org/) -->

<svg
   width="32"
   height="12"
   viewBox="0 0 8.4666666 3.175"
   version="1.1"
   id="svg1338"
   inkscape:version="1.4.1 (93de688d07, 2025-03-30)"
   sodipodi:docname="SeqNameCHat.svg"
   xmlns:inkscape="http://www.inkscape.org/namespaces/inkscape"
   xmlns:sodipodi="http://sodipodi.sourceforge.net/DTD/sodipodi-0.dtd"
   xmlns="http://www.w3.org/2000/svg"
   xmlns:svg="http://www.w3.org/2000/svg"
   xmlns:rdf="http://www.w3.org/1999/02/22-rdf-syntax-ns#"
   xmlns:cc="http://creativecommons.org/ns#"
   xmlns:dc="http://purl.org/dc/elements/1.1/">
  <defs
     id="defs1332" />
  <sodipodi:namedview
     id="base"
     pagecolor="#ffffff"
     bordercolor="#666666"
     borderopacity="1.0"
     inkscape:pageopacity="0.0"
     inkscape:pageshadow="2"
     inkscape:zoom="11.2"
     inkscape:cx="-1.5625"
     inkscape:cy="13.660714"
     inkscape:document-units="mm"
     inkscape:current-layer="layer1"
     showgrid="true"
     inkscape:snap-object-midpoints="true"
     inkscape:snap-page="true"
     inkscape:snap-bbox="true"
     inkscape:snap-bbox-midpoints="true"
     inkscape:bbox-paths="true"
     inkscape:snap-nodes="false"
     inkscape:window-width="2560"
     inkscape:window-height="1422"
     inkscape:window-x="0"
     inkscape:window-y="0"
     inkscape:window-maximized="1"
     inkscape:snap-grids="false"
     inkscape:showpageshadow="2"
     inkscape:pagecheckerboard="0"
     inkscape:deskcolor="#d1d1d1">
    <inkscape:grid
       type="xygrid"
       id="grid1889"
       spacingx="4.25"
       spacingy="4.25"
       units="mm"
       originx="0"
       originy="0" />
  </sodipodi:namedview>
  <metadata
     id="metadata1335">
    <rdf:RDF>
      <cc:Work
         rdf:about="">
        <dc:format>image/svg+xml</dc:format>
        <dc:type
           rdf:resource="http://purl.org/dc/dcmitype/StillImage" />
      </cc:Work>
    </rdf:RDF>
  </metadata>
  <g
     inkscape:label="Capa 1"
     inkscape:groupmode="layer"
     id="layer1"
     transform="translate(0,-288.5)">
    <path
       d="m 2.2989254,289.70622 c -0.083398,-0.46013 -0.3479706,-0.68444 -0.808097,-0.68444 -0.2818274,0 -0.50901486,0.0892 -0.66430752,0.2617 -0.18980215,0.20705 -0.29333059,0.50614 -0.29333059,0.84548 0,0.34509 0.10640423,0.6413 0.30195796,0.84548 0.16392004,0.1668 0.37097695,0.24444 0.64417695,0.24444 0.5118907,0 0.7994697,-0.27607 0.8627371,-0.8311 H 2.0659864 c -0.023006,0.14379 -0.051764,0.24157 -0.094901,0.32496 -0.086274,0.17255 -0.2645726,0.27033 -0.4888843,0.27033 -0.4169895,0 -0.68156223,-0.33359 -0.68156223,-0.85699 0,-0.53777 0.25019373,-0.86849 0.65855593,-0.86849 0.1696716,0 0.3278401,0.0489 0.4141138,0.13229 0.077646,0.0719 0.1207832,0.15817 0.1524169,0.31634 z m 0.6700595,-0.64993 H 2.7015365 v 2.09645 h 1.3027329 v -0.23581 H 2.9689849 Z m 2.6859874,1.14169 v 0.95476 h 0.2674485 v -2.09645 H 5.6549723 v 0.90587 H 4.576551 v -0.90587 H 4.3091025 v 2.09645 H 4.576551 v -0.95476 z m 1.2365899,-0.52627 v 1.48103 h 0.2530696 v -2.0792 H 6.9778359 c -0.089149,0.31922 -0.1466653,0.36235 -0.5377727,0.41412 v 0.18405 z"
       id="text3"
       style="font-size:2.87579px;fill:#e4b4b4;stroke-width:0.117428;stroke-linecap:round;stroke-miterlimit:4.1;stroke-dasharray:0.939426, 0.234856, 0.117428, 0.234856"
       aria-label="CLH1" />
    <path
       d="m 8.3173959,290.09901 -0.8589823,-0.36362 v 0.13877 l 0.6921043,0.28809 -0.6921043,0.28281 v 0.13877 l 0.8589823,-0.36362 z"
       id="text2"
       style="font-size:1.75661px;fill:#b3b3b3;stroke-width:0.2119;stroke-opacity:0.186488"
       aria-label="&gt;" />
  </g>
</svg>
