<?xml version="1.0" encoding="UTF-8" standalone="no"?>
<!-- Created with Inkscape (http://www.inkscape.org/) -->

<svg
   width="32"
   height="12"
   viewBox="0 0 8.4666666 3.175"
   version="1.1"
   id="svg1338"
   inkscape:version="1.4.1 (93de688d07, 2025-03-30)"
   sodipodi:docname="SeqNameKik2 (copy 1).svg"
   xmlns:inkscape="http://www.inkscape.org/namespaces/inkscape"
   xmlns:sodipodi="http://sodipodi.sourceforge.net/DTD/sodipodi-0.dtd"
   xmlns="http://www.w3.org/2000/svg"
   xmlns:svg="http://www.w3.org/2000/svg"
   xmlns:rdf="http://www.w3.org/1999/02/22-rdf-syntax-ns#"
   xmlns:cc="http://creativecommons.org/ns#"
   xmlns:dc="http://purl.org/dc/elements/1.1/">
  <defs
     id="defs1332" />
  <sodipodi:namedview
     id="base"
     pagecolor="#ffffff"
     bordercolor="#666666"
     borderopacity="1.0"
     inkscape:pageopacity="0.0"
     inkscape:pageshadow="2"
     inkscape:zoom="11.2"
     inkscape:cx="-1.5625"
     inkscape:cy="13.660714"
     inkscape:document-units="mm"
     inkscape:current-layer="layer1"
     showgrid="true"
     inkscape:snap-object-midpoints="true"
     inkscape:snap-page="true"
     inkscape:snap-bbox="true"
     inkscape:snap-bbox-midpoints="true"
     inkscape:bbox-paths="true"
     inkscape:snap-nodes="false"
     inkscape:window-width="2560"
     inkscape:window-height="1422"
     inkscape:window-x="0"
     inkscape:window-y="0"
     inkscape:window-maximized="1"
     inkscape:snap-grids="false"
     inkscape:showpageshadow="2"
     inkscape:pagecheckerboard="0"
     inkscape:deskcolor="#d1d1d1">
    <inkscape:grid
       type="xygrid"
       id="grid1889"
       spacingx="4.25"
       spacingy="4.25"
       units="mm"
       originx="0"
       originy="0" />
  </sodipodi:namedview>
  <metadata
     id="metadata1335">
    <rdf:RDF>
      <cc:Work
         rdf:about="">
        <dc:format>image/svg+xml</dc:format>
        <dc:type
           rdf:resource="http://purl.org/dc/dcmitype/StillImage" />
      </cc:Work>
    </rdf:RDF>
  </metadata>
  <g
     inkscape:label="Capa 1"
     inkscape:groupmode="layer"
     id="layer1"
     transform="translate(0,-288.5)">
    <path
       d="m 8.3173959,290.09901 -0.8589823,-0.36362 v 0.13877 l 0.6921043,0.28809 -0.6921043,0.28281 v 0.13877 l 0.8589823,-0.36362 z"
       id="text2"
       style="font-size:1.75661px;fill:#b3b3b3;stroke-width:0.2119;stroke-opacity:0.186488"
       aria-label="&gt;" />
    <path
       d="m 1.1576628,289.38009 h 0.6643364 v -0.22793 H 0.23203939 v 0.22793 h 0.667116 v 1.79844 H 1.1576628 Z m 1.6761311,-0.26128 c -0.5809468,0 -0.9756571,0.42806 -0.9756571,1.06182 0,0.63654 0.3919306,1.06183 0.9784368,1.06183 0.2473888,0 0.4642015,-0.075 0.6282009,-0.21403 0.2195923,-0.18624 0.3502359,-0.50034 0.3502359,-0.83112 0,-0.65322 -0.3863714,-1.0785 -0.9812165,-1.0785 z m 0,0.22793 c 0.4391847,0 0.722709,0.33078 0.722709,0.84501 0,0.48922 -0.2918632,0.82278 -0.7199293,0.82278 -0.4336254,0 -0.7199294,-0.33356 -0.7199294,-0.8339 0,-0.50033 0.286304,-0.83389 0.7171497,-0.83389 z m 2.3821598,1.83179 0.5698282,-1.69837 v 1.69837 h 0.2446092 v -2.02637 H 5.6718163 l -0.5892858,1.76508 -0.6004044,-1.76508 H 4.1235512 v 2.02637 h 0.2446092 v -1.69837 l 0.5753876,1.69837 z m 1.7345024,-1.43152 v 1.43152 h 0.2446092 v -2.00969 H 7.0338456 c -0.086169,0.30854 -0.1417622,0.35024 -0.5197946,0.40027 v 0.1779 z"
       id="text1"
       style="font-size:2.77965px;fill:#e4b4b4;stroke-width:0.113503;stroke-linecap:round;stroke-miterlimit:4.1;stroke-dasharray:0.908024, 0.227005, 0.113503, 0.227005"
       aria-label="TOM1" />
  </g>
</svg>
