<?xml version="1.0" encoding="UTF-8" standalone="no"?>
<!-- Created with Inkscape (http://www.inkscape.org/) -->

<svg
   width="32"
   height="12"
   viewBox="0 0 8.4666666 3.175"
   version="1.1"
   id="svg1338"
   inkscape:version="1.4.1 (93de688d07, 2025-03-30)"
   sodipodi:docname="SeqNameCHat1 (copy 1).svg"
   xmlns:inkscape="http://www.inkscape.org/namespaces/inkscape"
   xmlns:sodipodi="http://sodipodi.sourceforge.net/DTD/sodipodi-0.dtd"
   xmlns="http://www.w3.org/2000/svg"
   xmlns:svg="http://www.w3.org/2000/svg"
   xmlns:rdf="http://www.w3.org/1999/02/22-rdf-syntax-ns#"
   xmlns:cc="http://creativecommons.org/ns#"
   xmlns:dc="http://purl.org/dc/elements/1.1/">
  <defs
     id="defs1332" />
  <sodipodi:namedview
     id="base"
     pagecolor="#ffffff"
     bordercolor="#666666"
     borderopacity="1.0"
     inkscape:pageopacity="0.0"
     inkscape:pageshadow="2"
     inkscape:zoom="11.2"
     inkscape:cx="-1.5625"
     inkscape:cy="13.660714"
     inkscape:document-units="mm"
     inkscape:current-layer="layer1"
     showgrid="true"
     inkscape:snap-object-midpoints="true"
     inkscape:snap-page="true"
     inkscape:snap-bbox="true"
     inkscape:snap-bbox-midpoints="true"
     inkscape:bbox-paths="true"
     inkscape:snap-nodes="false"
     inkscape:window-width="2560"
     inkscape:window-height="1422"
     inkscape:window-x="0"
     inkscape:window-y="0"
     inkscape:window-maximized="1"
     inkscape:snap-grids="false"
     inkscape:showpageshadow="2"
     inkscape:pagecheckerboard="0"
     inkscape:deskcolor="#d1d1d1">
    <inkscape:grid
       type="xygrid"
       id="grid1889"
       spacingx="4.25"
       spacingy="4.25"
       units="mm"
       originx="0"
       originy="0" />
  </sodipodi:namedview>
  <metadata
     id="metadata1335">
    <rdf:RDF>
      <cc:Work
         rdf:about="">
        <dc:format>image/svg+xml</dc:format>
        <dc:type
           rdf:resource="http://purl.org/dc/dcmitype/StillImage" />
      </cc:Work>
    </rdf:RDF>
  </metadata>
  <g
     inkscape:label="Capa 1"
     inkscape:groupmode="layer"
     id="layer1"
     transform="translate(0,-288.5)">
    <path
       d="m 2.0893282,289.7198 c -0.080044,-0.44162 -0.3339769,-0.65691 -0.7755993,-0.65691 -0.2704937,0 -0.48854475,0.0856 -0.63759231,0.25117 -0.18216924,0.19873 -0.28153428,0.48579 -0.28153428,0.81148 0,0.33122 0.10212518,0.61552 0.2898147,0.81149 0.15732798,0.16008 0.35605809,0.23461 0.61827139,0.23461 0.4913049,0 0.7673189,-0.26498 0.8280419,-0.79768 H 1.8657569 c -0.022081,0.138 -0.049683,0.23185 -0.091085,0.31189 -0.082804,0.16561 -0.2539329,0.25946 -0.4692238,0.25946 -0.4002203,0 -0.65415317,-0.32018 -0.65415317,-0.82253 0,-0.51614 0.24013217,-0.83356 0.63207207,-0.83356 0.1628482,0 0.3146559,0.0469 0.3974601,0.12697 0.074524,0.069 0.1159259,0.15181 0.1462874,0.30361 z m 0.6431129,-0.62379 h -0.256693 v 2.01214 h 1.2503434 v -0.22633 H 2.7324411 Z m 2.57797,1.09578 v 0.91636 h 0.256693 v -2.01214 h -0.256693 v 0.86945 H 4.2753587 v -0.86945 H 4.0186656 v 2.01214 h 0.2566931 v -0.91636 z m 1.8686152,0.67623 H 6.1494941 c 0.024841,-0.16561 0.1131657,-0.27049 0.3532979,-0.41678 l 0.276014,-0.15457 c 0.2732539,-0.1518 0.414021,-0.35605 0.414021,-0.60171 0,-0.16561 -0.066243,-0.32017 -0.1821692,-0.42782 -0.1159259,-0.10488 -0.2594532,-0.15457 -0.4443826,-0.15457 -0.2484126,0 -0.4333419,0.0883 -0.5409874,0.25946 -0.069003,0.10488 -0.099365,0.22909 -0.1048853,0.43058 h 0.2428923 c 0.00828,-0.13525 0.024841,-0.21529 0.057963,-0.28154 0.063483,-0.12144 0.1904497,-0.19597 0.3367371,-0.19597 0.2208112,0 0.3864196,0.16009 0.3864196,0.37538 0,0.16009 -0.091085,0.2981 -0.2649734,0.39746 l -0.2539329,0.14905 c -0.4085007,0.23461 -0.5271867,0.4223 -0.5492679,0.8584 h 1.3027861 z"
       id="text1"
       style="font-size:2.76014px;fill:#e4b4b4;stroke-width:0.112707;stroke-linecap:round;stroke-miterlimit:4.1;stroke-dasharray:0.901651, 0.225412, 0.112707, 0.225412"
       aria-label="CLH2" />
    <path
       d="m 8.3173959,290.09901 -0.8589823,-0.36362 v 0.13877 l 0.6921043,0.28809 -0.6921043,0.28281 v 0.13877 l 0.8589823,-0.36362 z"
       id="text2"
       style="font-size:1.75661px;fill:#b3b3b3;stroke-width:0.2119;stroke-opacity:0.186488"
       aria-label="&gt;" />
  </g>
</svg>
