<?xml version="1.0" encoding="UTF-8" standalone="no"?>
<!-- Created with Inkscape (http://www.inkscape.org/) -->

<svg
   width="32"
   height="12"
   viewBox="0 0 8.4666666 3.175"
   version="1.1"
   id="svg1338"
   inkscape:version="1.4.1 (93de688d07, 2025-03-30)"
   sodipodi:docname="SeqNameTom1 (copy 1).svg"
   xmlns:inkscape="http://www.inkscape.org/namespaces/inkscape"
   xmlns:sodipodi="http://sodipodi.sourceforge.net/DTD/sodipodi-0.dtd"
   xmlns="http://www.w3.org/2000/svg"
   xmlns:svg="http://www.w3.org/2000/svg"
   xmlns:rdf="http://www.w3.org/1999/02/22-rdf-syntax-ns#"
   xmlns:cc="http://creativecommons.org/ns#"
   xmlns:dc="http://purl.org/dc/elements/1.1/">
  <defs
     id="defs1332" />
  <sodipodi:namedview
     id="base"
     pagecolor="#ffffff"
     bordercolor="#666666"
     borderopacity="1.0"
     inkscape:pageopacity="0.0"
     inkscape:pageshadow="2"
     inkscape:zoom="11.2"
     inkscape:cx="-1.5625"
     inkscape:cy="13.660714"
     inkscape:document-units="mm"
     inkscape:current-layer="layer1"
     showgrid="true"
     inkscape:snap-object-midpoints="true"
     inkscape:snap-page="true"
     inkscape:snap-bbox="true"
     inkscape:snap-bbox-midpoints="true"
     inkscape:bbox-paths="true"
     inkscape:snap-nodes="false"
     inkscape:window-width="2560"
     inkscape:window-height="1422"
     inkscape:window-x="0"
     inkscape:window-y="0"
     inkscape:window-maximized="1"
     inkscape:snap-grids="false"
     inkscape:showpageshadow="2"
     inkscape:pagecheckerboard="0"
     inkscape:deskcolor="#d1d1d1">
    <inkscape:grid
       type="xygrid"
       id="grid1889"
       spacingx="4.25"
       spacingy="4.25"
       units="mm"
       originx="0"
       originy="0" />
  </sodipodi:namedview>
  <metadata
     id="metadata1335">
    <rdf:RDF>
      <cc:Work
         rdf:about="">
        <dc:format>image/svg+xml</dc:format>
        <dc:type
           rdf:resource="http://purl.org/dc/dcmitype/StillImage" />
      </cc:Work>
    </rdf:RDF>
  </metadata>
  <g
     inkscape:label="Capa 1"
     inkscape:groupmode="layer"
     id="layer1"
     transform="translate(0,-288.5)">
    <path
       d="m 8.3173959,290.09901 -0.8589823,-0.36362 v 0.13877 l 0.6921043,0.28809 -0.6921043,0.28281 v 0.13877 l 0.8589823,-0.36362 z"
       id="text2"
       style="font-size:1.75661px;fill:#b3b3b3;stroke-width:0.2119;stroke-opacity:0.186488"
       aria-label="&gt;" />
    <path
       d="M 0.58646669,290.20722 H 1.2027835 c 0.1534064,0 0.2745167,-0.0457 0.379479,-0.13994 0.1184189,-0.10766 0.1695544,-0.23415 0.1695544,-0.41447 0,-0.36871 -0.2179985,-0.57595 -0.6055515,-0.57595 H 0.33617207 v 1.96199 h 0.25029462 z m 0,-0.22069 v -0.68898 H 1.1085866 c 0.2395293,0 0.3821703,0.12919 0.3821703,0.34449 0,0.21531 -0.142641,0.34449 -0.3821703,0.34449 z m 1.70361511,0.15879 h 1.068462 v -0.22069 h -1.068462 v -0.62708 h 1.1088321 v -0.22069 H 2.0397872 v 1.96199 H 3.447358 v -0.22069 H 2.2900818 Z m 1.8031971,0.0484 h 0.6459216 c 0.2233812,0 0.3229608,0.10765 0.3229608,0.34987 l -0.00269,0.17494 c 0,0.12111 0.021531,0.23953 0.056518,0.32027 h 0.3041214 v -0.0619 c -0.094197,-0.0646 -0.1130362,-0.13457 -0.1184189,-0.39563 -0.00269,-0.32296 -0.053827,-0.41985 -0.2664427,-0.51135 0.2206899,-0.11035 0.3095041,-0.24222 0.3095041,-0.4683 0,-0.33911 -0.2099245,-0.52481 -0.5974775,-0.52481 H 3.8429843 v 1.96199 h 0.2502946 z m 0,-0.22069 v -0.67553 h 0.6055515 c 0.1399497,0 0.2206899,0.0215 0.2825907,0.0754 0.067283,0.0565 0.1022709,0.14533 0.1022709,0.26106 0,0.23415 -0.1184189,0.33911 -0.3848616,0.33911 z m 3.1784725,-0.28798 c -0.078049,-0.43061 -0.3256521,-0.64053 -0.7562665,-0.64053 -0.2637513,0 -0.4763672,0.0834 -0.6216996,0.24491 -0.1776284,0.19377 -0.2745166,0.47367 -0.2745166,0.79125 0,0.32296 0.099579,0.60017 0.2825907,0.79126 0.1534063,0.15609 0.3471828,0.22876 0.6028601,0.22876 0.4790585,0 0.7481925,-0.25837 0.807402,-0.7778 H 7.0537529 c -0.021531,0.13457 -0.048444,0.22608 -0.088814,0.30412 -0.08074,0.16148 -0.2476033,0.25299 -0.4575278,0.25299 -0.3902443,0 -0.6378476,-0.3122 -0.6378476,-0.80202 0,-0.50328 0.2341466,-0.81278 0.6163168,-0.81278 0.1587891,0 0.3068128,0.0457 0.387553,0.1238 0.072666,0.0673 0.1130363,0.14802 0.142641,0.29604 z"
       id="text1"
       style="font-size:2.69134px;fill:#e4b4b4;stroke-width:0.109896;stroke-linecap:round;stroke-miterlimit:4.1;stroke-dasharray:0.879173, 0.219792, 0.109896, 0.219792"
       aria-label="PERC" />
  </g>
</svg>
